<svg xmlns="http://www.w3.org/2000/svg" width="50" height="50" viewBox="0 0 100 100">
    <g fill="none" fill-rule="evenodd">
        <path d="M0 0h100v100H0z"/>
        <path fill="#FFF" fill-rule="nonzero" d="M71 30.635v-.058c0-.057 0-.115-.058-.173v-.058c-.057-.057-.057-.115-.115-.173-.057-.058-.115-.115-.23-.115h-.058c-.057 0-.115-.058-.172-.058h-.116c-.057 0-.115 0-.172.058h-.058L30.403 48.94a.71.71 0 0 0-.403.635c0 .289.173.52.403.635l13.532 6.468 7.198 13.917a.708.708 0 0 0 .634.404.708.708 0 0 0 .633-.404l18.485-39.672v-.058c.057-.058.115-.115.115-.23zm-4.261 2.483l-22.4 22.175-11.978-5.717 34.378-16.458zM51.767 68.632l-6.392-12.357L67.89 33.927 51.767 68.632z"/>
    </g>
</svg>
